# xmcd CD database file
#
# Track frame offsets:
#	150
#	23618
#	56961
#	82903
#	105523
#	132743
#	158395
#	191759
#	224598
#	257040
#	284140
#	308044
#
# Disc length: 4542 seconds
#
# Revision: 0
# Processed by: cddbd v1.5.2PL0 Copyright (c) Steve Scherf et al.
# Submitted via: CDex 1.51
#
DISCID=ad11bc0c
DTITLE=Bobby Shew - Cancaos Do Amor
DYEAR=2007
DGENRE=Jazz
TTITLE0=O Meu Amor E Seu
TTITLE1=Fundo Nos Meus Sonhos
TTITLE2=Ate Quando Vocz Me Delxou
TTITLE3=Me Segure Em Seus Bracos
TTITLE4=Cancao Noturna
TTITLE5=Me Ame Para Sempre
TTITLE6=Estou Sempre Sonhado Com Vocz
TTITLE7=E Bom Te Ver De Novo
TTITLE8=Serenata
TTITLE9=Bossa De Verco
TTITLE10=Se Apaixonando Mais Uma
TTITLE11=Te Amo Mais Do Que Nunca
EXTD=YEAR: 2007
EXTT0=
EXTT1=
EXTT2=
EXTT3=
EXTT4=
EXTT5=
EXTT6=
EXTT7=
EXTT8=
EXTT9=
EXTT10=
EXTT11=
PLAYORDER=
